:SAMPLES-PER-SECOND 30
:FULLY-SPECIFIED
:DEGREES
297
root  -12.6274 34.4837 -17.7697 -170.959 2.10513 179.853
RightUpLeg  -9.25558 -13.8106 -0.876637
RightLeg  8.17623 -0.0295467 -0.00120147
RightFoot  2.39233 0.0104913 0.129032
RightToes  -24.0714 -0.106002 -0.206484
Spine  -2.91894 0.126459 0.328288
Spine1  -5.93888 0.292465 1.20859
HEad  -64.0667 0.231715 4.66489
LeftShoulder1  -1.94126e-019 -3.10601e-018 -2.51263e-017
LeftArm  -12.7674 26.5441 -82.9242
LeftForeArm  32.3788 -12.5865 -2.08247
LeftHand  -0.383736 -1.30158 6.7741
RightShoulder  -4.96962e-017 0 -2.36833e-017
RightArm  -29.9743 -26.6225 77.4355
RightForeArm  44.9118 13.8751 1.46398
RightHand  -0.190643 -3.0408 -8.20394
LeftUpLeg  -7.99437 -0.209241 0.494802
LeftLeg  8.53734 13.376 1.12466
LeftFoot  1.4077 -0.000357515 0.449961
LeftToes  -16.4973 1.48347e-006 1.01831e-007
298
root  -12.6238 34.4828 -17.8019 -170.911 2.0607 179.854
RightUpLeg  -9.20293 -13.8367 -0.867908
RightLeg  8.08916 -0.0478292 -0.00256216
RightFoot  2.42259 0.0106021 0.12776
RightToes  -24.0716 -0.105745 -0.206517
Spine  -2.90932 0.11224 0.343838
Spine1  -5.91879 0.262569 1.23976
HEad  -63.9712 0.224648 4.61491
LeftShoulder1  -1.94126e-019 -3.10601e-018 -2.51263e-017
LeftArm  -12.9424 26.5288 -82.9221
LeftForeArm  32.4123 -12.5182 -2.07605
LeftHand  -0.381297 -1.10872 7.00505
RightShoulder  -4.96962e-017 0 -2.36833e-017
RightArm  -30.0426 -26.652 77.3987
RightForeArm  44.949 13.878 1.46298
RightHand  -0.19114 -3.05378 -8.25834
LeftUpLeg  -7.99817 -0.28387 0.504576
LeftLeg  8.54633 13.4073 1.12934
LeftFoot  1.40245 -0.000827452 0.449265
LeftToes  -16.4471 1.48347e-006 1.01831e-007
299
root  -12.6213 34.4826 -17.8298 -170.87 1.97749 179.854
RightUpLeg  -9.1365 -13.8367 -0.86197
RightLeg  7.99434 -0.126935 -0.00844103
RightFoot  2.42442 0.0107047 0.126252
RightToes  -24.0279 -0.105426 -0.206632
Spine  -2.89726 0.0898799 0.35633
Spine1  -5.89408 0.216424 1.26433
HEad  -63.9798 0.262623 4.70099
LeftShoulder1  -1.94126e-019 -3.10601e-018 -2.51263e-017
LeftArm  -12.9562 26.474 -82.8041
LeftForeArm  32.5418 -12.5262 -2.07607
LeftHand  -0.389492 -1.27486 6.84863
RightShoulder  -4.96962e-017 0 -2.36833e-017
RightArm  -30.0683 -26.6802 77.349
RightForeArm  44.8945 13.9125 1.45556
RightHand  -0.194659 -3.08036 -8.19651
LeftUpLeg  -7.98526 -0.346462 0.515856
LeftLeg  8.50403 13.3955 1.1185
LeftFoot  1.39981 -0.00111585 0.447812
LeftToes  -16.3828 1.48347e-006 1.01831e-007
300
root  -12.6178 34.4859 -17.8581 -170.82 1.87292 179.854
RightUpLeg  -9.05347 -13.926 -0.854636
RightLeg  7.84712 -0.142628 -0.00925254
RightFoot  2.46392 0.010802 0.124514
RightToes  -23.992 -0.105048 -0.206845
Spine  -2.88069 0.0602529 0.368541
Spine1  -5.86027 0.155523 1.2878
HEad  -64.0253 0.27452 4.80653
LeftShoulder1  -1.94126e-019 -3.10601e-018 -2.51263e-017
LeftArm  -12.9863 26.3436 -82.7564
LeftForeArm  32.5508 -12.567 -2.07961
LeftHand  -0.388291 -1.09401 7.02748
RightShoulder  -4.96962e-017 0 -2.36833e-017
RightArm  -30.1117 -26.6595 77.2809
RightForeArm  44.8645 13.9247 1.45464
RightHand  -0.194643 -3.13326 -8.27045
LeftUpLeg  -7.96514 -0.357921 0.523375
LeftLeg  8.41309 13.3287 1.09193
LeftFoot  1.44372 -0.0018618 0.455841
LeftToes  -16.4234 1.48347e-006 1.01831e-007
301
root  -12.6149 34.4908 -17.8849 -170.768 1.76022 179.853
RightUpLeg  -8.97748 -14.0011 -0.845375
RightLeg  7.71016 -0.185119 -0.011898
RightFoot  2.49054 0.0108968 0.122552
RightToes  -23.8681 -0.104612 -0.207172
Spine  -2.87017 0.0374702 0.380832
Spine1  -5.83857 0.107768 1.31018
HEad  -63.9959 0.221573 4.82914
LeftShoulder1  -1.94126e-019 -3.10601e-018 -2.51263e-017
LeftArm  -12.9055 26.1786 -82.631
LeftForeArm  32.6299 -12.6378 -2.08529
LeftHand  -0.396283 -1.31856 6.83967
RightShoulder  -4.96962e-017 0 -2.36833e-017
RightArm  -30.1505 -26.6425 77.1991
RightForeArm  44.9012 13.9247 1.45657
RightHand  -0.195541 -3.16393 -8.29492
LeftUpLeg  -7.93978 -0.399415 0.531305
LeftLeg  8.30818 13.2663 1.06269
LeftFoot  1.49529 -0.00254201 0.465528
LeftToes  -16.3346 1.48347e-006 1.01831e-007
302
root  -12.6114 34.4936 -17.9077 -170.722 1.67218 179.849
RightUpLeg  -8.91614 -14.0272 -0.837536
RightLeg  7.59201 -0.257038 -0.0164247
RightFoot  2.51949 0.011133 0.118353
RightToes  -23.9427 -0.104122 -0.207742
Spine  -2.86779 0.0290916 0.394941
Spine1  -5.83096 0.0891275 1.33375
HEad  -63.8933 0.13423 4.88133
LeftShoulder1  -1.94126e-019 -3.10601e-018 -2.51263e-017
LeftArm  -12.8471 25.9864 -82.5657
LeftForeArm  32.6582 -12.7265 -2.09277
LeftHand  -0.398282 -1.2928 6.77797
RightShoulder  -4.96962e-017 0 -2.36833e-017
RightArm  -30.203 -26.6188 77.0939
RightForeArm  44.9083 13.9 1.46327
RightHand  -0.195662 -3.09426 -8.31627
LeftUpLeg  -7.91861 -0.416168 0.538955
LeftLeg  8.21024 13.2042 1.03531
LeftFoot  1.53354 -0.00280355 0.471692
LeftToes  -16.2811 1.48347e-006 1.01831e-007
303
root  -12.6085 34.4959 -17.9322 -170.674 1.56073 179.84
RightUpLeg  -8.86249 -14.0513 -0.834525
RightLeg  7.50301 -0.335507 -0.0212589
RightFoot  2.51256 0.0112645 0.115481
RightToes  -23.8872 -0.103579 -0.207435
Spine  -2.86897 0.0145625 0.407986
Spine1  -5.83932 0.0590704 1.35516
HEad  -63.6672 0.0310898 4.87198
LeftShoulder1  -1.94126e-019 -3.10601e-018 -2.51263e-017
LeftArm  -12.7704 25.865 -82.5208
LeftForeArm  32.6735 -13.1614 -2.16537
LeftHand  -0.395949 -1.32359 6.83828
RightShoulder  -4.96962e-017 0 -2.36833e-017
RightArm  -30.2672 -26.5996 76.9979
RightForeArm  44.9214 13.8954 1.46241
RightHand  -0.195927 -3.19034 -8.34565
LeftUpLeg  -7.91632 -0.509202 0.543521
LeftLeg  8.14921 13.1987 1.02088
LeftFoot  1.59151 -0.00325398 0.484083
LeftToes  -16.2646 1.48347e-006 1.01831e-007
304
root  -12.6018 34.4996 -17.9527 -170.632 1.44887 179.828
RightUpLeg  -8.8102 -14.1438 -0.826016
RightLeg  7.41333 -0.361828 -0.0224464
RightFoot  2.50071 0.0114011 0.112413
RightToes  -23.7966 -0.102985 -0.207051
Spine  -2.87137 0.00571309 0.417907
Spine1  -5.84824 0.0407628 1.37141
HEad  -63.5124 -0.0531207 4.93188
LeftShoulder1  -1.94126e-019 -3.10601e-018 -2.51263e-017
LeftArm  -12.7151 25.6871 -82.5373
LeftForeArm  32.688 -13.4714 -2.2179
LeftHand  -0.386919 -1.15503 7.00777
RightShoulder  -4.96962e-017 0 -2.36833e-017
RightArm  -30.3876 -26.56 76.924
RightForeArm  44.9746 13.8559 1.46412
RightHand  -0.195372 -3.1791 -8.36419
LeftUpLeg  -7.90034 -0.634772 0.559033
LeftLeg  8.05989 13.2058 1.0009
LeftFoot  1.70334 -0.00432307 0.509688
LeftToes  -16.2975 1.48347e-006 1.01831e-007
305
root  -12.5969 34.5062 -17.9682 -170.586 1.28326 179.806
RightUpLeg  -8.76443 -14.2257 -0.821699
RightLeg  7.32003 -0.455195 -0.0277848
RightFoot  2.53951 0.0116661 0.107432
RightToes  -23.8973 -0.102342 -0.206552
Spine  -2.87267 -0.0089606 0.427624
Spine1  -5.84289 0.0116147 1.38861
HEad  -63.3414 -0.173528 4.89967
LeftShoulder1  -1.94126e-019 -3.10601e-018 -2.51263e-017
LeftArm  -12.5277 25.5043 -82.5323
LeftForeArm  32.5599 -13.8843 -2.28455
LeftHand  -0.376106 -1.12453 6.84485
RightShoulder  -4.96962e-017 0 -2.36833e-017
RightArm  -30.552 -26.4976 76.8648
RightForeArm  45.0021 13.813 1.46665
RightHand  -0.193112 -3.17701 -8.4236
LeftUpLeg  -7.90142 -1.04262 0.562281
LeftLeg  7.95533 13.442 0.994081
LeftFoot  1.86438 -0.00639931 0.554851
LeftToes  -16.0541 1.48347e-006 1.01831e-007
306
root  -12.5871 34.5156 -17.9756 -170.549 1.02039 179.746
RightUpLeg  -8.70514 -14.2929 -0.841006
RightLeg  7.2229 -0.674492 -0.0405632
RightFoot  2.54244 0.0122175 0.0983258
RightToes  -23.7949 -0.101653 -0.205895
Spine  -2.87199 -0.0429877 0.426393
Spine1  -5.84116 -0.0550951 1.38908
HEad  -63.2111 -0.265475 4.88694
LeftShoulder1  -1.94126e-019 -3.10601e-018 -2.51263e-017
LeftArm  -12.3541 25.3145 -82.5798
LeftForeArm  32.5226 -14.2585 -2.34421
LeftHand  -0.366371 -0.96209 6.82772
RightShoulder  -4.96962e-017 0 -2.36833e-017
RightArm  -30.7118 -26.4423 76.8562
RightForeArm  44.9875 13.783 1.46916
RightHand  -0.191748 -3.22103 -8.42857
LeftUpLeg  -7.90821 -1.51426 0.531684
LeftLeg  7.82351 13.6973 0.981262
LeftFoot  2.04768 -0.00798254 0.608229
LeftToes  -15.7329 1.48347e-006 1.01831e-007
